<?xml version="1.0" encoding="UTF-8" standalone="no"?>
<!-- Created with Inkscape (http://www.inkscape.org/) -->

<svg
   xmlns:dc="http://purl.org/dc/elements/1.1/"
   xmlns:cc="http://creativecommons.org/ns#"
   xmlns:rdf="http://www.w3.org/1999/02/22-rdf-syntax-ns#"
   xmlns:svg="http://www.w3.org/2000/svg"
   xmlns="http://www.w3.org/2000/svg"
   xmlns:sodipodi="http://sodipodi.sourceforge.net/DTD/sodipodi-0.dtd"
   xmlns:inkscape="http://www.inkscape.org/namespaces/inkscape"
   width="210mm"
   height="297mm"
   viewBox="0 0 210 297"
   version="1.1"
   id="svg8"
   inkscape:version="0.92.1 r"
   sodipodi:docname="i hope i'm good at this.svg">
  <defs
     id="defs2" />
  <sodipodi:namedview
     id="base"
     pagecolor="#ffffff"
     bordercolor="#666666"
     borderopacity="1.0"
     inkscape:pageopacity="0.0"
     inkscape:pageshadow="2"
     inkscape:zoom="0.7"
     inkscape:cx="696.794"
     inkscape:cy="459.90863"
     inkscape:document-units="mm"
     inkscape:current-layer="layer1"
     showgrid="false"
     inkscape:window-width="1920"
     inkscape:window-height="1015"
     inkscape:window-x="1920"
     inkscape:window-y="0"
     inkscape:window-maximized="1" />
  <metadata
     id="metadata5">
    <rdf:RDF>
      <cc:Work
         rdf:about="">
        <dc:format>image/svg+xml</dc:format>
        <dc:type
           rdf:resource="http://purl.org/dc/dcmitype/StillImage" />
        <dc:title></dc:title>
      </cc:Work>
    </rdf:RDF>
  </metadata>
  <g
     inkscape:label="Ebene 1"
     inkscape:groupmode="layer"
     id="layer1">
    <path
       style="fill:#000000;stroke-width:0.35277775"
       d="m 54.95884,162.33067 c 1.376616,-6.70366 1.432287,-13.4876 1.805007,-20.08463 0.241037,-3.05119 0.651936,-5.42308 0.864858,-8.62971 0.222667,-3.35339 0.661828,-6.88951 0.886451,-10.41511 0.439047,-2.67508 0.150328,-4.79498 0.03086,-6.86708 0.359098,-3.26102 0.484126,-8.68381 1.407236,-9.73457 0.818982,-0.68142 3.401808,-2.13286 5.641288,-0.5335 4.240075,1.44187 4.496731,6.4736 5.025281,10.2881 0.713289,4.68448 -1.124445,9.27152 -0.716806,13.99221 -0.05957,3.90074 -0.248748,5.85166 -0.453487,8.7726 -0.210781,3.00715 -0.299617,6.03524 -0.797606,9.00836 -0.40684,2.42893 -0.997935,4.83557 -1.782066,7.17017 -0.649945,1.93509 -1.71578,3.73401 -2.409955,5.62984 -0.855045,1.80393 -1.691733,2.23142 -3.43571,3.52777 -2.570711,0.48136 -5.772718,-1.13337 -6.065351,-2.12445 z m 4.157618,-0.57886 c 2.021279,-0.79143 3.840481,-3.18755 4.6375,-5.08847 1.374499,-1.9886 2.248342,-5.5668 2.749028,-8.10855 0.662387,-2.37012 0.988262,-7.34874 0.886796,-11.2839 0.203804,-3.07084 0.208591,-6.82908 0.158694,-9.72945 -0.03854,-2.78262 1.110713,-7.76844 0.469742,-11.22136 -0.665596,-2.10734 -0.575942,-5.68441 -2.134199,-6.51792 -2.13613,-1.33616 -3.81903,-0.96111 -4.27442,0.0388 -0.564372,3.25819 -1.280923,6.81921 -1.092093,9.74454 0.158404,3.17906 -0.306448,6.2679 -0.521466,8.90615 -0.190926,2.34266 -0.486487,4.87248 -0.625588,6.95993 -0.3186,1.72596 -1.107202,14.01671 -1.673888,21.36377 0.123824,1.07068 -0.742235,5.68836 1.419889,4.93642 z m 119.461362,3.28263 c -0.27468,0.0553 -4.90561,0.007 -6.5345,-2.07179 -1.33997,-1.57581 -0.54811,-4.66683 -0.40343,-5.20523 0.16904,-0.62912 0.22342,-1.63202 1.26565,-3.16772 2.65257,-2.03019 1.17093,2.57382 0.77175,4.51248 -0.48528,2.35675 3.61157,3.3427 4.67351,3.07103 1.62431,-0.82454 2.43524,-1.40263 3.11437,-2.27898 0.88088,-0.88707 3.13934,-5.11862 3.39998,-7.09369 0.72146,-4.49823 1.63091,-7.08886 0.24936,-11.5652 -0.5358,-2.63583 -2.78387,-3.37457 -5.12031,-3.94166 -1.67977,-1.50632 -2.18139,-2.22916 -3.15945,-4.05938 -1.20024,-2.44038 -1.07749,-5.07955 -1.25428,-7.48052 -0.11464,-1.55684 0.48453,-4.03872 0.77934,-6.04092 0.53729,-3.08714 1.34474,-8.39094 1.76483,-9.23111 0.67648,-1.35293 1.08472,-3.70387 2.41814,-4.90181 1.1266,-1.01213 3.10942,-1.17207 4.57565,-1.03894 2.90845,0.26408 4.07465,2.05812 4.9835,3.90239 0.68339,1.65143 1.00784,3.62233 1.11392,4.90054 0.23108,2.78449 -1.87529,2.41076 -2.21662,0.62719 -0.45088,-2.59978 -0.84504,-4.3007 -1.68621,-5.33919 -2.25338,-1.51294 -4.19348,-1.27026 -5.15858,0.12463 -1.49256,1.87676 -1.56993,4.80423 -2.36341,6.86129 -0.46564,4.30797 -2.24879,8.70778 -1.04425,13.17929 0.30754,1.68655 0.97755,2.79482 2.30712,4.63826 1.95893,1.52679 3.55869,0.55019 5.16754,2.45122 1.66682,1.436 1.52986,3.9948 1.99181,6.44495 0.44962,2.83042 0.28186,5.57576 -0.0648,8.36798 -0.27503,2.215 -0.83942,4.36676 -1.4333,6.31619 -0.71959,2.36207 -2.06063,3.90841 -2.6626,4.77541 -0.8873,1.08532 -1.31112,1.77426 -5.47469,3.24329 z m -23.13089,-2.46626 c -2.48058,1.92509 -1.24449,-3.5942 -1.32264,-5.15404 -0.61507,-4.84891 1.88365,-9.52814 1.52823,-14.30206 -1.5861,-2.44505 -4.64811,-0.46168 -6.79098,-0.4771 -1.87643,-0.11264 -2.60009,2.53769 -2.74382,4.82347 -0.51377,4.32131 -1.82382,11.11877 -1.42593,12.77234 -1.21514,3.09784 -3.27361,-0.54598 -3.08587,-1.77788 0.0595,-0.24592 0.69311,-3.13039 0.73841,-4.94207 0.0732,-2.92754 0.28454,-2.86862 0.94612,-5.01397 0.3497,-1.134 0.15301,-4.70866 0.36903,-6.77293 1.14623,-1.96251 0.79471,-4.51668 1.46102,-6.88453 0.66093,-4.05307 0.31921,-10.45467 1.56067,-15.6163 -0.018,-2.62226 0.18995,-1.9782 0.34584,-4.86163 0.0668,-1.23587 0.0297,-5.28848 1.30364,-6.20465 1.84669,-1.4343 1.87628,2.97271 1.58465,4.56908 -0.37428,4.44127 -1.69707,11.12721 -1.8476,13.21844 -0.14285,1.98457 -0.56743,4.86368 -0.48342,7.11585 6.1e-4,2.26686 -2.1935,5.78382 1.25429,6.0872 1.8825,-0.22965 6.00216,-0.65403 6.54352,-1.24849 1.4841,-1.26057 1.14071,-4.8781 1.57419,-7.14384 -0.14695,-2.46579 0.54589,-5.75354 1.02595,-8.8827 0.31651,-2.41639 0.86074,-4.12392 1.07143,-6.26085 0.68343,-2.47693 0.57994,-3.43705 1.06473,-6.58989 0.43702,-0.65784 -0.15914,-6.29001 2.56355,-5.41987 0.83301,2.2936 0.16779,5.15312 -0.2831,7.19854 -0.442,2.00513 -1.00233,4.42597 -1.24823,6.15669 -0.54944,3.86732 -1.49683,8.0542 -1.69764,9.88698 -0.37227,2.41626 -0.61572,5.92739 -0.32599,7.61101 0.24276,3.04443 0.0373,4.52961 -0.79366,6.73735 -0.85516,4.72854 -0.42876,9.59311 -1.77234,14.26776 -0.20291,2.41499 0.90891,4.83061 -1.11405,7.10809 z m 8.92014,0.49296 c -3.45366,0.88177 -2.42843,-3.30931 -1.922,-5.36057 0.74174,-3.78031 0.70149,-7.70348 1.5836,-11.319 0.57109,-2.34069 0.30903,-4.61013 0.88481,-7.28089 0.50168,-2.32706 0.94134,-6.35574 1.38962,-8.98757 1.40075,-8.22381 3.23453,-22.20519 4.20991,-22.89617 2.6713,-2.12285 1.73792,3.03552 1.18748,4.72994 -0.76747,5.53746 -1.42292,8.01767 -2.11902,13.62754 -0.2325,1.87368 -0.65435,7.0933 -1.05995,9.30551 -0.66122,3.60642 -2.36343,13.84196 -3.29773,20.64904 -0.13365,2.50675 -0.15065,7.15631 -0.85672,7.53217 z M 46.104028,161.72005 c -2.639898,0.66688 -4.144717,-1.68496 -4.92785,-3.43011 -0.564456,-1.81056 -1.231866,-4.12222 -1.210926,-6.24072 0.02254,-2.28008 -0.04884,-4.41443 0.267915,-6.41206 0.355098,-2.23947 0.876534,-4.88874 0.853284,-5.97596 -0.0191,-0.89317 0.148738,-4.17866 0.442645,-6.17174 0.917014,-6.53472 0.459991,-6.95891 1.429743,-13.53932 0.480402,-3.25984 1.270592,-9.33905 2.052444,-11.79015 0.973612,-1.89945 2.915252,-1.97935 4.458622,-1.78797 1.852238,0.22968 2.524133,0.76875 3.679633,1.94343 1.273556,1.23601 1.977656,3.37412 2.168078,5.24218 -0.01318,2.92515 0.424624,3.08278 0.702175,6.59311 -0.173913,6.66603 -1.186936,13.22296 -1.658167,19.90042 -0.182895,2.59166 -0.402179,3.68579 -0.839993,5.99194 -0.571021,2.99266 -1.229756,6.16345 -1.937782,9.06472 -0.490511,2.00996 -0.57665,3.07018 -2.2337,5.11528 -0.649063,0.80106 -2.29332,1.14474 -3.246121,1.49695 z m -0.547507,-2.96201 c 2.84872,-0.76314 2.949928,-2.22981 3.694444,-4.57185 0.401277,-1.26231 1.311772,-4.40498 1.860394,-7.0496 1.135932,-7.18227 2.39654,-14.34732 2.238387,-21.64018 -0.06961,-2.12499 0.471886,-4.96876 0.192613,-6.74765 -0.249163,-2.65946 0.358372,-4.38285 -0.709252,-6.4153 -0.852016,-1.3522 -2.082521,-4.5081 -4.634942,-3.97039 -1.202548,0.64534 -1.749241,3.08121 -2.219073,5.75316 -1.219312,6.93427 -2.214963,16.42313 -2.581254,20.88156 -0.186582,2.27105 -0.388963,4.61893 -0.303807,6.85717 -0.07091,2.85586 -1.113432,5.60705 -1.037991,7.61928 0.0604,1.61116 0.103905,3.59443 0.787961,5.48364 0.477323,1.31825 1.114708,3.66182 2.71252,3.80016 z m -18.844233,-0.0666 c -1.145428,-1.63195 -1.751045,-2.19715 -1.851275,-4.72411 -0.359368,-7.0427 -0.446477,-14.11438 1.160943,-21.02989 0.07575,-6.89156 0.386466,-13.77223 1.563295,-20.58441 0.588278,-2.12497 0.819265,-4.79823 1.775965,-6.51585 1.211779,-2.17558 3.3939,-2.58619 5.46985,-1.23587 1.613833,1.03259 2.451157,2.07239 3.724875,3.43131 2.204482,2.35195 1.450396,5.96322 1.543336,8.43663 0.122165,3.25118 0.509848,6.4935 0.267111,9.67582 -0.768619,10.0767 -1.302822,20.44488 -4.246977,30.06772 -0.607122,1.98435 -1.609924,3.99156 -4.272646,4.29023 -2.614133,0.47284 -3.903943,-0.0846 -5.134477,-1.81158 z m 5.19717,-1.10043 c 1.69986,-0.67874 2.060695,-2.44511 2.52125,-4.1665 0.577595,-2.15885 1.156647,-3.02414 1.282336,-5.60699 0.288627,-5.93115 1.207654,-11.91765 1.976165,-17.80569 0.08329,-2.19673 0.526702,-4.4791 0.312729,-6.71589 -0.11985,-2.82693 -0.04653,-4.73217 -0.197304,-7.16013 -0.132229,-2.12927 0.711917,-4.78847 -1.158112,-6.74862 -1.389116,-1.45605 -2.627151,-3.30793 -4.804794,-2.14024 -1.740357,0.93321 -2.023711,2.82931 -2.143569,4.99706 -0.679236,5.35914 -1.675045,10.75495 -1.812521,16.14461 0.881142,6.54433 -1.82997,12.99267 -0.931931,19.57314 0.626057,2.23953 -0.0069,4.73305 1.053715,6.92475 0.714683,1.71595 1.727549,3.88765 3.902036,2.7045 z m 72.914262,2.98355 c -0.72794,-0.2497 -0.50032,-6.61927 0.17194,-9.74084 0.099,-2.34263 0.86437,-4.33184 1.03403,-6.58224 -0.0508,-1.91885 0.42952,-4.65556 0.56132,-6.98802 0.094,-1.66354 0.74082,-2.88095 0.70762,-5.50011 0.51078,-1.98188 0.3538,-4.34368 0.56738,-7.00872 0.19268,-2.66547 0.39861,-4.27053 0.4781,-7.12152 0.13267,-2.34367 0.25087,-4.09546 0.24772,-5.75142 -0.33139,-2.97799 -3.65995,-1.79216 -4.85854,-1.56648 -2.41739,0.39578 -2.91236,-0.76987 -3.29042,-2.24636 0.20497,-0.9263 1.55323,-0.59197 4.23333,-1.23818 1.8118,-0.43685 4.38594,0.24686 6.22312,0.30145 2.34077,0.0696 4.73434,-1.09704 5.52055,1.61463 -2.09188,1.51845 -4.97738,0.20014 -5.2285,2.55407 -0.26094,2.31038 -0.51952,4.19713 -0.77092,7.25266 -0.0596,2.47557 -0.49757,5.42051 -0.52221,8.05195 0.0375,5.63666 -1.33484,11.21283 -1.64675,16.80248 -0.17414,3.39275 -1.39304,7.95316 -1.41148,12.27422 -0.0979,1.73782 0.46414,4.6732 -2.01629,4.89243 z m -20.165532,-0.87951 c -1.677331,0.63967 -0.326725,-4.27988 -0.213096,-5.8119 1.578272,-9.37741 2.517684,-18.9026 4.544039,-28.17957 0.926798,-2.92016 1.175215,-5.83063 1.894594,-8.88997 0.567108,-2.41177 0.825272,-5.29238 1.609712,-7.73518 0.831478,-1.8411 1.965427,-0.83132 3.825584,-0.95984 1.775719,1.23903 1.13008,3.48906 1.360199,5.34134 0.473262,3.80938 0.357284,7.57432 0.435274,11.32629 0.08347,2.72019 0.453189,5.61525 0.414929,8.12382 -0.04502,2.95183 0.225955,4.6177 0.304354,7.63378 0.137813,5.30174 0.119148,10.25384 0.10164,15.4895 0.512803,2.63326 -2.732304,5.31051 -2.504368,1.52961 -0.34531,-2.39599 1.038399,-5.53058 -0.221612,-7.5858 -0.584985,-1.86164 -2.803325,-0.0676 -4.192541,0.31827 -1.397789,0.38824 -2.472804,0.38514 -4.274129,0.82021 -0.512892,1.10241 -1.42797,3.12053 -1.562108,5.62949 -0.183976,1.77687 -0.338635,2.62332 -1.522471,2.94995 z m 4.54238,-12.52605 c 1.09544,0.11164 2.523262,-0.4959 4.26246,-0.96284 2.028047,-1.02037 3.289005,-2.52258 2.954365,-5.41234 -0.393972,-2.09012 -0.31671,-4.77357 -0.433782,-7.31539 -0.106279,-2.30749 -0.05974,-4.65588 -0.06932,-6.86176 -0.604843,-3.44084 -0.210502,-8.31477 -0.677094,-12.4373 -1.043828,-4.18789 -2.142576,0.37138 -2.455733,2.31776 -0.561346,3.48896 -0.906544,7.43436 -1.647493,10.64632 -0.216393,0.12799 -1.057816,3.49585 -1.198601,5.51675 -0.728016,4.54072 -1.266988,9.11428 -2.220559,13.61581 0.07953,0.32676 0.915767,0.83276 1.48576,0.89299 z M 9.9329985,156.20508 C 9.5061076,155.30189 8.7695704,152.98324 8.6252074,151.14593 8.1085863,145.9494 8.3152293,140.73411 8.5054982,135.52735 c 0.2293277,-2.16374 0.2835999,-3.26795 0.4986758,-4.72338 0.044764,-0.37523 0.2843459,-2.64101 0.3465395,-3.82792 0.081084,-1.74991 0.4466816,-4.55288 0.2749481,-6.58754 -0.070946,-4.17437 1.0348544,-8.06656 1.4984644,-12.32977 0.537547,-1.72254 1.366957,-4.82719 3.05665,-4.99705 1.484837,-1.02873 4.051047,0.63484 4.760231,2.21236 0.598597,1.35916 1.939654,5.24589 1.550434,8.33535 -0.186484,0.90945 -1.055372,1.27411 -1.546317,0.0576 0.0052,-2.51584 -0.485827,-4.17965 -0.790551,-5.1538 -0.712508,-1.5889 -1.26584,-3.60027 -3.389175,-2.61835 -1.55234,2.15664 -1.568846,4.83749 -1.841882,7.58825 -0.858242,4.83029 -0.963769,9.70401 -1.064919,14.59106 -0.308786,2.07666 -0.52968,3.96161 -0.803338,6.56628 -0.111818,2.68309 -0.373956,6.45751 -0.208248,7.96312 -0.300263,1.91658 -0.483739,4.83847 0.177704,6.38897 0.03619,2.73532 0.773795,3.45847 1.77645,5.8393 2.178941,2.2265 3.188708,-0.20852 4.033354,-1.65867 0.745797,-1.80693 1.49966,-4.15833 1.717306,-6.64046 -0.31421,-2.50073 1.288509,-4.14884 1.382998,-6.36509 1.030715,-3.29451 0.889201,-3.98515 -3.100304,-5.12754 -2.052803,-1.32396 2.8249,-1.88803 4.305854,-1.42559 3.227579,0.26417 0.90157,4.1358 1.098123,6.22588 -0.368371,2.68817 -0.940156,5.3453 -1.215917,8.04788 -0.693123,1.82066 -0.924611,4.31625 -1.634178,6.0952 -0.702889,1.50186 -1.708008,2.69114 -2.553882,4.28222 -0.965141,1.37015 -2.466111,0.88309 -3.691248,0.77631 -2.715298,-1.57051 -2.343863,-2.01874 -3.2102725,-2.83689 z M 132.33578,152.56136 c 0.51922,-3.79379 1.17153,-8.35345 0.91775,-11.38634 -0.10396,-2.51851 1.00496,-9.72286 1.82657,-15.22537 -0.15033,-2.64722 1.1098,-5.70373 0.65698,-8.36043 0.0666,-2.77604 0.30648,-5.29277 0.42218,-7.8941 -0.91127,-2.69981 -2.94423,0.72286 -4.83155,-1.4646 -2.13298,-1.42852 0.78786,-3.1137 1.74137,-2.89696 2.15547,-0.0456 3.45138,-1.29941 5.82658,-1.02703 2.33614,0.34972 3.91343,-1.59109 6.05103,0.50515 0.69623,2.92718 -3.73718,2.09664 -5.39,3.18889 -2.27234,1.60403 -0.74684,4.90143 -1.26307,7.28847 0.0397,2.31412 -0.22823,3.76584 -0.27627,6.4159 -0.042,2.31504 -1.19259,5.24787 -0.87955,7.54772 -0.14699,2.96301 -1.3422,6.23175 -1.0024,9.01825 0.32721,4.09881 -0.78328,8.64225 -1.50804,12.84122 0.40745,1.93757 0.13368,5.14384 -0.24434,6.61246 -3.30516,1.01198 -1.92183,-3.8687 -2.04724,-5.16323 z M 81.090028,102.35244 c -3.216476,-0.087 -2.966517,-3.888217 -2.719162,-5.587156 0.289158,-1.986066 0.266994,-5.020515 1.262041,-6.320366 0.583845,-2.210515 0.915535,-4.233657 0.48048,-6.09892 -0.213289,-1.098916 1.020021,-7.768352 1.667891,-11.632657 1.32679,-1.175165 1.950936,-2.064896 4.682508,-2.569858 2.625069,0.03416 4.143042,1.194688 6.52034,2.053432 1.33612,1.747332 2.304645,2.209482 2.888835,4.250225 0.50588,1.767181 0.781955,3.706318 0.685337,5.987201 -0.67694,2.079318 -1.852858,3.651812 -3.103036,5.11527 -1.043645,1.221691 -2.663239,2.420205 -3.882442,2.752932 -1.816254,0.495666 -2.967635,0.399691 -4.651962,0.697548 -2.541306,0.727113 -2.497033,4.017545 -2.28159,6.314155 0.900596,2.129191 -0.522385,4.823374 -1.54924,5.038194 z m 4.44796,-15.196559 c 1.466781,-0.637865 3.382451,0.06726 4.473352,-1.319818 0.783227,-0.995871 2.460408,-1.816189 2.455388,-4.59638 -0.0037,-2.03203 -0.489106,-3.50922 -1.774596,-4.93022 -1.141515,-1.543161 -5.689667,-2.378219 -5.549241,0.280316 -0.377555,3.404554 -1.261323,6.771296 -1.281813,10.202482 0.558841,0.118035 1.098917,0.356369 1.67691,0.36362 z m 23.289942,5.825606 c -2.7823,-0.311109 -4.79918,-1.933773 -6.62119,-3.950856 -1.2996,-1.721357 -1.48195,-3.272232 -2.06505,-5.468954 -0.565527,-2.141007 -0.192857,-5.068241 0.89323,-7.274348 0.87655,-1.780468 0.82882,-2.761596 2.41025,-4.118197 1.1697,-0.746772 1.77397,-1.365166 3.39742,-2.012494 1.04818,-0.6356 3.35091,-1.368517 5.63057,0.01866 2.08628,1.26951 2.51958,2.098344 4.09703,3.610958 1.4655,3.827458 0.20611,7.385126 -2.6142,8.737992 -2.30772,0.0486 -4.28323,0.896143 -6.43259,0.46617 -2.01769,0.414829 -3.83307,1.917721 -1.27534,3.940807 1.19139,1.170994 3.22081,2.076774 5.23338,1.738023 2.14171,-0.404216 3.12087,-0.331877 5.2312,-1.089026 1.52058,0.05757 3.78421,-1.101653 4.4949,1.265792 0.86997,2.027615 -1.5484,2.703246 -2.96184,2.936894 -3.28332,1.171178 -6.77256,1.651812 -9.41777,1.198576 z m -0.7389,-13.713371 c 2.01093,0.120538 4.67602,0.04726 5.05382,-2.353221 -0.10833,-1.816024 -1.89112,-2.871211 -4.23333,-3.049344 -1.93204,0.853778 -3.65752,1.854821 -3.52778,3.6469 -0.57567,1.229917 1.61729,1.748754 2.70729,1.755665 z m 76.91147,12.509405 c -2.05314,-0.472288 -1.27326,-2.677749 -0.8083,-4.17159 0.7539,-1.665759 0.84959,-3.860049 0.86113,-5.340658 0.0121,-1.552095 -0.46598,-4.730918 -2.61376,-4.440734 -3.00677,-0.08486 -3.46517,0.583267 -4.73854,1.416702 -1.43299,0.611225 -0.93646,4.873247 -1.20466,6.754207 -0.34761,2.437878 -1.33994,3.817384 -2.40399,4.72603 -2.55845,0.270036 -1.6707,-4.013132 -0.98176,-5.149907 0.92366,-2.513291 0.0362,-3.971651 0.31637,-6.392078 0.27194,-2.733381 -2.86664,-2.946924 -4.50439,-2.240364 -2.30472,0.994305 -3.04604,2.703684 -3.17689,5.341811 -0.13299,2.681141 0.95696,3.64686 -0.27356,6.215313 -0.98246,2.050688 -2.66627,0.856888 -2.61706,-1.360752 0.17785,-2.363995 0.21967,-4.705613 0.10216,-6.993262 -0.1151,-2.240749 0.81148,-5.003135 2.67064,-6.280438 1.76987,-1.215961 3.52309,-1.322747 5.0856,-1.387467 1.58735,-0.06575 2.84153,0.389169 4.87094,1.209597 2.1349,2.568984 3.44744,0.932567 4.90097,0.190893 1.90516,-0.457195 3.27439,-0.638198 5.15589,-0.188952 1.75335,0.496977 2.14245,1.923509 2.45464,3.532258 0.61849,2.718058 0.78219,5.945423 -0.007,8.817361 -0.41969,1.527236 -0.84925,6.423972 -3.0884,5.74203 z M 65.127692,88.128563 c -1.599103,-1.097145 -3.015073,-2.45327 -3.40223,-3.981504 -0.596145,-2.353173 -0.473946,-2.467152 -0.302593,-5.30561 0.136887,-2.267545 1.09849,-4.941967 2.351804,-6.148111 2.423558,-2.332346 6.195221,-1.94813 8.850367,-0.574302 1.450155,0.750341 1.892069,1.399154 3.073009,2.766794 0.316592,2.123643 1.070548,3.3946 0.939797,5.942406 -0.124901,2.433822 -0.51186,4.473945 -1.624899,5.772721 -1.054403,1.230353 -1.45586,1.985588 -3.851119,3.065964 -1.250211,0.563905 -4.350389,-0.339761 -6.034136,-1.538358 z m 3.829746,-2.031012 c 2.237722,-0.149663 3.23749,-0.969996 3.816954,-2.286597 0.916363,-2.082068 0.440761,-4.449275 0.151796,-5.595606 -0.605709,-2.402861 -2.141623,-3.796933 -4.402043,-4.046551 -2.012234,-0.22221 -3.265968,2.879542 -3.703035,4.590651 -0.654948,2.335735 -0.283445,4.410483 0.13997,4.852379 1.055584,1.101659 2.343532,2.510456 3.996358,2.485724 z m -22.895911,3.143158 c -2.799512,-0.511675 -2.298926,-2.542952 -1.903464,-4.957987 0.32309,-4.118974 0.786032,-8.869792 1.047087,-12.567804 0.187564,-2.65696 0.165663,-5.59401 0.601875,-8.336316 0.617336,-4.074066 1.132328,-8.373631 1.650997,-12.334333 1.813666,-2.487975 3.026724,2.583635 2.760904,4.221972 -0.02213,5.067301 -1.442432,9.319166 -1.422634,13.91831 1.635644,0.781372 2.769253,-0.663211 4.286106,-0.47278 2.62402,0.584714 4.152301,1.552535 4.6743,3.3533 0.898013,1.385492 1.186131,4.37492 0.936541,6.647988 -0.349831,2.977362 -0.632854,8.226513 -1.249963,8.765039 -2.041342,2.142446 -3.18885,1.325898 -3.364157,-1.222339 -0.270636,-1.021119 0.513734,-6.249513 0.928409,-9.127458 0.643037,-2.090438 -1.502044,-4.401794 -3.78353,-4.001181 -1.456048,0.255672 -2.393653,0.98055 -2.857686,2.427981 -0.126377,1.995388 -0.67318,4.555023 -0.963547,6.565514 -0.197354,1.366481 -0.44332,7.536772 -1.341238,7.120094 z M 146.51733,88.820561 c -3.25131,1.264177 -2.11896,-2.957738 -1.68509,-4.792318 0.80986,-3.394894 0.67788,-7.143259 2.0892,-10.312422 2.57643,0.912649 2.16729,3.275013 1.71322,5.971364 -0.65871,1.895258 -0.52659,4.825251 -0.82174,6.097776 -0.25757,1.876173 -0.0558,1.981342 -1.29559,3.0356 z M 18.880478,86.133071 c -1.737674,-0.683252 -3.039122,-3.720711 -1.07363,-4.89747 0.66251,-2.74084 0.06152,-4.697062 0.11207,-7.0105 -0.599465,-1.952731 1.993269,-5.978533 3.14894,-3.21453 0.841627,1.316656 0.453132,4.45313 0.420453,6.751039 -0.01325,1.775159 0.368154,3.899714 -0.152031,6.084211 -0.592332,1.158875 -1.515234,2.568125 -2.4558,2.28725 z M 157.0761,75.907921 c -2.20092,-0.904822 -1.23545,-4.437658 -0.60192,-6.3264 0.7053,-1.787205 1.52583,-4.173017 3.76867,-4.60971 1.83994,2.340756 0.0512,4.711223 -0.41064,6.058715 -0.78765,2.29784 -1.00988,4.354281 -2.75611,4.877395 z m -8.03811,-11.4729 c -0.5962,-0.0046 -2.97458,-2.81887 -0.70749,-3.814668 1.00228,-1.186742 4.09924,1.753024 2.84837,3.223098 -0.67206,0.535479 -1.0935,0.599573 -2.14088,0.59157 z M 20.097718,63.913461 c -1.966491,-0.476151 -3.83786,-3.852453 -1.291837,-5.146343 2.257013,0.366102 3.572525,2.027144 3.087321,3.90996 -0.344706,0.813175 -0.95243,1.428735 -1.795484,1.236383 z"
       id="path4137"
       inkscape:connector-curvature="0"
       sodipodi:nodetypes="ccsccccccaaaccccccccccccsccccccscsccccccscssscsccccccccsscccccccccsscccsccsccccccccsscccccccsssccssccccssscscscccscssccccccccsscsscccccscssssccccsccsssccccccccsccccccssccccccccccsccscsscccsccccccsccscccccccccccccccccccccccccccccccccccccccccccccccscccccccccccscsscccccscccccccsccscccccccccccccccccsccscccssscsssccccsccccssscssscccsscscccsccccccccccscsccccccccccccccccssccsccsccccc" />
  </g>
</svg>
